
<svg width="45" height="46" viewBox="0 0 45 46" fill="none" xmlns="http://www.w3.org/2000/svg">
<path d="M32.4773 36.7461C31.5104 36.7461 30.7265 35.9416 30.7265 34.9492V19.8555C30.7265 18.8631 31.5104 18.0586 32.4773 18.0586C33.4443 18.0586 34.2282 18.8631 34.2282 19.8555V34.9493C34.2282 35.9416 33.4443 36.7461 32.4773 36.7461ZM36.2697 42.8738L41.7128 37.3336C43.6878 35.3235 44.8205 32.5333 44.8205 29.6786V10.7812C44.8205 4.83647 40.1081 0 34.3157 0H15.948C13.1585 0 10.5314 1.1102 8.55087 3.12623L3.10769 8.66638C1.13269 10.6765 0 13.4667 0 16.3215V35.2188C0 41.1635 4.71245 46 10.5048 46H28.8725C31.6621 46 34.2891 44.8898 36.2697 42.8738ZM34.3157 3.59375C38.1773 3.59375 41.3189 6.81803 41.3189 10.7812V29.6785C41.3189 31.5817 40.5638 33.4418 39.2471 34.7819L33.804 40.3222C32.4836 41.6661 30.7323 42.4063 28.8725 42.4063H10.5048C6.64321 42.4063 3.5016 39.182 3.5016 35.2188V16.3215C3.5016 14.4183 4.25676 12.5582 5.57339 11.2181L11.0165 5.67784C12.3369 4.33388 14.0882 3.59375 15.948 3.59375H34.3157ZM36.3769 11.1873L37.1132 10.4511C37.8058 9.75857 37.8202 8.62089 37.1454 7.91013C36.4707 7.1993 35.3621 7.18448 34.6697 7.87705L33.9333 8.61331C32.5354 10.0114 30.6906 10.7812 28.7388 10.7812H11.2927C10.3257 10.7812 9.54185 11.5857 9.54185 12.5782C9.54185 13.5706 10.3257 14.3751 11.2927 14.3751H28.7387C31.6087 14.375 34.3213 13.2429 36.3769 11.1873Z" fill="white"/>
</svg>
