<svg width="70" height="26" viewBox="0 0 70 26" fill="none" xmlns="http://www.w3.org/2000/svg">
<path d="M12.8111 24.643C12.6307 24.8534 12.4204 24.9937 12.1799 25.0538C11.9395 25.1139 11.699 25.144 11.4786 25.144C11.2181 25.144 10.9476 25.1039 10.6671 25.0338C10.6371 24.9236 10.617 24.8134 10.587 24.7232C10.5569 24.633 10.5369 24.5328 10.5068 24.4327C10.3666 24.0019 10.2564 23.5811 10.1762 23.1503C10.0961 22.7195 10.056 22.2887 10.056 21.8279C10.056 21.6175 10.046 21.3971 10.0159 21.1666C9.98587 20.9362 9.97585 20.7158 9.95582 20.4854C9.92576 20.1247 9.91574 19.7641 9.90573 19.4034C9.90573 19.0427 9.88569 18.6821 9.87567 18.3214C9.84561 17.6702 9.82558 17.019 9.80554 16.3778C9.7855 15.7266 9.77549 15.0855 9.77549 14.4343C9.77549 13.8933 9.77548 13.3623 9.79552 12.8313C9.80554 12.3003 9.81556 11.7794 9.8356 11.2484C9.8356 11.1683 9.8356 11.0981 9.8356 11.018C9.8356 10.9378 9.8356 10.8477 9.8356 10.7475H2.98299C2.99301 10.9779 3.00302 11.1983 3.01304 11.4187C3.02306 11.6391 3.03308 11.8595 3.06314 12.0899C3.08317 12.5308 3.11323 12.9716 3.13326 13.4224C3.1533 13.8732 3.17334 14.3241 3.20339 14.7548C3.22343 15.1957 3.2635 15.6265 3.29356 16.0673C3.33363 16.4981 3.36369 16.9389 3.38373 17.3797C3.46387 18.2613 3.51396 19.1329 3.54402 20.0045C3.57408 20.8761 3.54402 21.7477 3.47389 22.6293C3.44384 23.0301 3.40376 23.4308 3.32361 23.8215C3.24347 24.2122 3.12325 24.603 2.94291 24.9837C2.8828 25.1239 2.78262 25.2341 2.6624 25.3343C2.53216 25.4245 2.40192 25.4646 2.25164 25.4345C2.19153 25.4245 2.13142 25.3944 2.07131 25.3443C2.0112 25.2942 1.96111 25.2441 1.91102 25.1941C1.58041 24.8334 1.36 24.4327 1.22976 24.0119C1.09952 23.5811 1.00936 23.1503 0.949246 22.6894C0.849062 21.7477 0.748878 20.816 0.658712 19.9043C0.568546 18.9926 0.468362 18.0609 0.368177 17.1192C0.177827 15.2958 0.0676244 13.4525 0.0275507 11.599C0.0275507 11.2684 0.0275507 10.9478 0.00751382 10.6072C-0.00250461 10.2766 -0.00250461 9.946 0.00751382 9.61539C0.0175323 8.60353 0.057606 7.57163 0.117717 6.52972C0.147772 5.96868 0.177827 5.40765 0.217901 4.86666C0.257975 4.32566 0.298048 3.77465 0.318085 3.22363C0.338122 2.89303 0.358159 2.57244 0.378196 2.25185C0.388214 1.93126 0.428288 1.61067 0.488399 1.28006C0.508435 1.09973 0.558528 0.94945 0.628657 0.799174C0.698786 0.658916 0.778933 0.518658 0.879117 0.3784C0.899154 0.338326 0.939228 0.308271 0.969283 0.298252C1.00936 0.278215 1.03941 0.268197 1.07949 0.24816C1.22976 0.24816 1.38004 0.24816 1.5203 0.258179C1.66055 0.258179 1.80081 0.318289 1.94107 0.418473C1.96111 0.448529 2.00118 0.458547 2.04126 0.468566C2.08133 0.468566 2.1214 0.488602 2.16148 0.518658C2.26166 0.56875 2.35183 0.648897 2.44199 0.749082C2.53216 0.859284 2.60229 0.979506 2.67242 1.10975C2.73253 1.23998 2.78262 1.38024 2.82269 1.5205C2.86277 1.66076 2.87279 1.791 2.86277 1.91122C2.85275 2.11159 2.85275 2.31196 2.86277 2.51233C2.87279 2.71269 2.8828 2.92308 2.8828 3.13347V4.47594C2.8828 4.92677 2.8828 5.36758 2.90284 5.81841C2.90284 6.45959 2.90284 7.10077 2.90284 7.74195C2.90284 8.38313 2.92288 9.02431 2.9329 9.66549C2.9329 9.69554 2.9329 9.71558 2.9329 9.74563C2.9329 9.77569 2.9329 9.79573 2.9329 9.82578C3.51396 9.78571 4.08502 9.74563 4.65607 9.71558C5.22712 9.6755 5.79817 9.64545 6.3592 9.62541C6.94027 9.59536 7.51132 9.59536 8.08237 9.60538C8.65342 9.61539 9.24451 9.62541 9.84561 9.62541C9.85563 9.44508 9.86565 9.28478 9.88569 9.12449C9.89571 8.9642 9.90573 8.81392 9.90573 8.66364C9.92576 7.98239 9.95582 7.32117 9.97585 6.65996C9.99589 5.99874 10.0259 5.33752 10.056 4.67631C10.076 4.16537 10.1161 3.65443 10.1562 3.14349C10.1963 2.63255 10.2764 2.13163 10.3866 1.6307C10.4367 1.42032 10.5068 1.20993 10.587 0.999542C10.6671 0.789155 10.7573 0.588787 10.8575 0.388418C10.9176 0.24816 11.0478 0.157994 11.2382 0.117921C11.4285 0.0778468 11.5888 0.0978837 11.7291 0.198068C11.9294 0.338326 12.0998 0.488602 12.23 0.658916C12.3602 0.829229 12.4504 1.03962 12.5005 1.29008C12.6107 1.92124 12.6908 2.54238 12.7309 3.17354C12.771 3.8047 12.8111 4.43586 12.8511 5.07704C12.8712 5.47778 12.9012 5.87852 12.9213 6.26924C12.9413 6.66997 12.9513 7.06069 12.9714 7.46143C12.9914 7.86217 13.0114 8.27292 13.0114 8.68368C13.0114 9.09444 13.0114 9.50519 13.0315 9.90593C13.0515 10.3968 13.0715 10.8777 13.0916 11.3686C13.1016 11.8495 13.1116 12.3404 13.1317 12.8313C13.1517 13.4124 13.1818 13.9834 13.2018 14.5645C13.2218 15.1456 13.2419 15.7166 13.2719 16.2977C13.292 16.7385 13.322 17.1793 13.342 17.6301C13.3621 18.071 13.3821 18.5218 13.4122 18.9526C13.4322 19.6539 13.4422 20.3552 13.4422 21.0564C13.4422 21.7577 13.4022 22.449 13.342 23.1603C13.312 23.4508 13.2619 23.7213 13.1818 23.9818C13.1016 24.2423 12.9714 24.4727 12.791 24.6831L12.8111 24.643Z" fill="#3B3B42"/>
<path d="M31.4057 24.5829C31.4057 24.7231 31.3355 24.8434 31.1853 24.9536C31.045 25.0638 30.9047 25.1439 30.7845 25.204C30.6843 25.2541 30.5842 25.3042 30.494 25.3543C30.4038 25.4044 30.3036 25.4244 30.2035 25.4144C29.9129 25.3844 29.6224 25.3844 29.3419 25.3944C29.0513 25.4044 28.7808 25.3343 28.5103 25.184C28.2298 25.0437 27.9994 24.8634 27.799 24.643C27.5987 24.4226 27.4284 24.1721 27.2881 23.8816C27.0577 23.4408 26.8773 23 26.7271 22.5491C26.5768 22.0983 26.4465 21.6375 26.3464 21.1566C26.2362 20.5956 26.0959 20.0445 25.9456 19.5035C25.7853 18.9626 25.6351 18.4216 25.4848 17.8705C25.3245 17.2795 25.1842 16.6884 25.064 16.0873C24.9438 15.4862 24.8236 14.8951 24.6933 14.294C24.6933 14.2639 24.6933 14.2439 24.6933 14.2238C24.6933 14.2038 24.6933 14.1838 24.6933 14.1537C24.6633 14.0134 24.6432 13.9133 24.6132 13.8331C24.5831 13.753 24.5531 13.7029 24.513 13.6628C24.4729 13.6227 24.4128 13.6027 24.3327 13.5927C24.2525 13.5927 24.1523 13.5927 24.0121 13.5927C22.8299 13.5927 21.6477 13.5326 20.4756 13.4224C20.4155 13.4123 20.3453 13.4023 20.2652 13.4224C20.185 13.4224 20.0949 13.4224 19.9847 13.4224C19.8244 13.4324 19.7041 13.4424 19.624 13.4224C19.5438 13.4224 19.4938 13.4224 19.4437 13.4524C19.4036 13.4825 19.3635 13.5326 19.3234 13.6227C19.2834 13.7129 19.2333 13.8532 19.1531 14.0535C18.7424 15.0654 18.3216 16.0873 17.9008 17.0891C17.4801 18.101 17.0593 19.1128 16.6485 20.1247C16.4982 20.4854 16.368 20.856 16.2478 21.2267C16.1276 21.5974 15.9973 21.9681 15.8571 22.3488C15.797 22.5492 15.7068 22.7295 15.6066 22.8898C15.4964 23.0501 15.3561 23.2003 15.1858 23.3406C15.1157 23.4007 15.0356 23.4608 14.9554 23.5009C14.8753 23.541 14.7851 23.531 14.6849 23.4708C14.5847 23.4107 14.5246 23.3306 14.5046 23.2404C14.4845 23.1503 14.4845 23.0501 14.5046 22.9499C14.6448 22.4089 14.7751 21.8779 14.9053 21.3369C15.0356 20.8059 15.1958 20.275 15.3662 19.744C15.807 18.3715 16.2879 17.029 16.8289 15.7066C17.3598 14.3841 17.8708 13.0316 18.3416 11.6691C18.6021 10.8877 18.8926 10.1363 19.2032 9.40497C19.5138 8.67362 19.8244 7.93226 20.1349 7.17086C20.4455 6.42949 20.7561 5.69815 21.0566 4.9668C21.3572 4.23546 21.6577 3.51413 21.9583 2.78278L22.4492 1.46035C22.4993 1.36017 22.5394 1.27 22.5594 1.17983C22.5794 1.08967 22.6496 1.01954 22.7497 0.949411C22.9301 0.849226 23.0804 0.739024 23.2306 0.628821C23.3809 0.518618 23.5212 0.398397 23.6714 0.288194C23.8017 0.198028 23.952 0.127899 24.1223 0.0577704C24.3527 0.00767819 24.5631 -0.0123587 24.7835 0.00767819C24.9939 0.0277151 25.1241 0.147936 25.1642 0.37836C25.3545 0.929374 25.5649 1.60061 25.8054 2.37203C26.0158 3.03324 26.2662 3.85476 26.5367 4.83656C26.8172 5.81837 27.1278 6.96047 27.4985 8.2829C27.6788 9.17454 27.8591 10.0562 28.0495 10.9278C28.2398 11.7994 28.4603 12.671 28.7107 13.5326C28.861 14.0635 28.9912 14.5945 29.1014 15.1355C29.2116 15.6765 29.3319 16.2175 29.4621 16.7585C29.8228 18.111 30.1634 19.3433 30.4639 20.4453C30.5942 20.9262 30.7144 21.387 30.8346 21.8479C30.9548 22.3087 31.065 22.7195 31.1552 23.1002C31.2454 23.4809 31.3255 23.7914 31.3756 24.0619C31.4257 24.3224 31.4457 24.4927 31.4457 24.5528L31.4057 24.5829ZM23.2206 4.29557C22.9201 4.94676 22.6195 5.57793 22.339 6.18905C22.0585 6.80017 21.7679 7.40128 21.4874 8.00239C20.9064 9.22463 20.4054 10.4369 19.9847 11.6591C19.9546 11.7292 19.9346 11.8094 19.9045 11.8795C19.8745 11.9496 19.8745 12.0298 19.9045 12.13C20.195 12.0999 20.4756 12.0799 20.7561 12.0498C21.0366 12.0198 21.3071 12.0098 21.5876 12.0098C21.9483 11.9997 22.319 11.9897 22.6796 12.0098C23.0403 12.0098 23.411 12.0098 23.7716 12.0098C24.002 12.0098 24.1323 11.9897 24.1623 11.9396C24.2024 11.8996 24.2024 11.7693 24.1824 11.5489C24.0722 10.6473 23.952 9.74559 23.8418 8.84394C23.7316 7.94228 23.6113 7.05064 23.5011 6.13896C23.4611 5.84842 23.431 5.54787 23.3909 5.24732C23.3509 4.93675 23.3008 4.61616 23.2206 4.27553V4.29557Z" fill="#3B3B42"/>
<path d="M34.6516 7.64158C34.6716 7.58147 34.7017 7.52136 34.7317 7.48128C34.7517 7.44121 34.7818 7.39112 34.8119 7.34102C35.0222 6.77999 35.2627 6.239 35.5332 5.72806C35.8037 5.21712 36.0842 4.70618 36.3747 4.19524C37.0259 3.01306 37.8675 1.98116 38.8994 1.08952C39.3402 0.698804 39.8211 0.40827 40.3521 0.207901C40.7528 0.0476062 41.1435 0.0375878 41.5242 0.207901C41.9049 0.368196 42.1954 0.628675 42.4058 0.989339C42.6062 1.35 42.7465 1.72068 42.8266 2.10138C42.9068 2.48209 42.9669 2.86279 43.0069 3.27354C43.057 3.73439 43.047 4.18522 42.9769 4.61601C42.9068 5.0468 42.7965 5.48761 42.6463 5.92843C42.6162 5.98854 42.5862 6.05867 42.5561 6.11878C42.516 6.17889 42.476 6.24902 42.4459 6.30913C42.1153 6.8902 41.7446 7.41115 41.3038 7.88202C40.873 8.35289 40.3921 8.7937 39.8812 9.19443C39.4203 9.5551 38.9294 9.88571 38.4285 10.1762C37.9276 10.4668 37.3966 10.6972 36.8256 10.8775C36.545 10.9677 36.2746 11.0478 35.994 11.128C35.7135 11.2081 35.433 11.2983 35.1425 11.3785C35.1325 11.3885 35.0824 11.4185 35.0122 11.4686C35.0222 11.6089 35.0323 11.7491 35.0523 11.8794C35.0623 12.0196 35.0824 12.1599 35.0924 12.2901C35.1124 12.5907 35.1425 12.8912 35.1725 13.2018C35.1926 13.5124 35.2326 13.8129 35.2827 14.1135C35.3428 14.6545 35.423 15.1855 35.5232 15.7164C35.6133 16.2474 35.6935 16.7784 35.7536 17.3194C35.8337 17.8504 35.8939 18.3813 35.9439 18.9123C35.994 19.4433 36.0541 19.9843 36.1143 20.5253C36.1343 20.8559 36.1643 21.1765 36.1844 21.5071C36.2044 21.8377 36.2144 22.1583 36.2144 22.4889C36.2144 22.6993 36.2144 22.9197 36.1944 23.1401C36.1844 23.3605 36.1543 23.5809 36.1042 23.7913C36.0541 23.9816 35.984 24.162 35.9039 24.3423C35.8237 24.5226 35.7436 24.713 35.6734 24.8933C35.6434 24.9534 35.6234 25.0135 35.5933 25.0736C35.5632 25.1338 35.5332 25.1939 35.5132 25.254C35.433 25.4143 35.3228 25.4644 35.1725 25.4043C35.0323 25.3441 34.902 25.274 34.7818 25.1939C34.6616 25.1137 34.5614 25.0035 34.4712 24.8532C34.2608 24.4725 34.1006 24.0818 33.9903 23.6811C33.8801 23.2703 33.81 22.8496 33.7699 22.4087C33.7399 22.1282 33.6998 21.8678 33.6397 21.5973C33.5796 21.3368 33.5295 21.0663 33.4894 20.7858C33.4293 20.385 33.3692 19.9843 33.3291 19.5735C33.2891 19.1628 33.2289 18.752 33.1688 18.3413L33.0586 17.5498C33.0085 17.1491 32.9584 16.7383 32.9084 16.3376C32.8583 15.9268 32.8182 15.5261 32.7781 15.1253C32.728 14.7146 32.688 14.2938 32.6579 13.8831C32.6278 13.4723 32.5978 13.0515 32.5778 12.6408C32.5176 11.9595 32.4675 11.2883 32.4275 10.6171C32.3874 9.94582 32.3473 9.27458 32.2972 8.59333C32.2572 7.99222 32.2171 7.3811 32.187 6.77999C32.147 6.16887 32.1169 5.56776 32.0969 4.96666C32.0668 4.73623 32.0668 4.51583 32.0668 4.27538C32.0668 4.04496 32.0868 3.81454 32.0969 3.58411C32.1069 3.48393 32.1269 3.37373 32.167 3.26352C32.1971 3.15332 32.2371 3.04312 32.2672 2.94293C32.3173 2.79266 32.4475 2.71251 32.6479 2.71251C33.1989 2.72253 33.5896 2.99303 33.82 3.50397C33.9102 3.74441 33.9803 3.99487 34.0505 4.27538C34.1106 4.58596 34.1807 4.89653 34.2408 5.2071C34.3009 5.51767 34.361 5.82824 34.4312 6.13881C34.4712 6.3492 34.5013 6.56961 34.5313 6.77999C34.5614 6.99038 34.6015 7.21078 34.6315 7.42117C34.6415 7.47126 34.6716 7.55141 34.7117 7.66161L34.6516 7.64158ZM34.892 10.056C35.1325 9.95583 35.3529 9.85565 35.5632 9.76548C35.7736 9.67532 35.974 9.56512 36.1744 9.45491C36.535 9.25454 36.8957 9.05418 37.2463 8.84379C37.597 8.6334 37.9476 8.42301 38.2983 8.21263C38.4786 8.11244 38.6389 8.00224 38.7792 7.872C38.9194 7.75178 39.0697 7.61152 39.22 7.48128C39.4504 7.28091 39.6508 7.07053 39.8211 6.8401C40.0014 6.60968 40.1717 6.37925 40.3521 6.12879C40.4923 5.91841 40.6125 5.698 40.7227 5.48761C40.8329 5.27723 40.9231 5.0468 40.9932 4.80636C41.1235 4.4457 41.2036 4.065 41.2337 3.6843C41.2737 3.3036 41.2938 2.91288 41.3138 2.52216C41.3138 2.42197 41.3138 2.32179 41.2938 2.23162C41.2838 2.14146 41.2637 2.04127 41.2337 1.94109C41.1936 1.7307 41.0634 1.59044 40.843 1.53033C40.7127 1.5103 40.6025 1.5103 40.5023 1.53033C40.4021 1.56039 40.302 1.60046 40.2018 1.65056C39.8712 1.86094 39.5706 2.09137 39.3001 2.33181C38.9595 2.62234 38.6489 2.93291 38.3584 3.28356C38.0679 3.62419 37.7974 3.98485 37.5469 4.34551C37.4367 4.50581 37.3165 4.67612 37.2063 4.83642C37.0961 4.99671 36.9758 5.16703 36.8656 5.34736C36.4749 5.94846 36.1243 6.56961 35.8237 7.21078C35.5131 7.85196 35.2226 8.49314 34.9321 9.15436C34.872 9.29462 34.8419 9.43488 34.8419 9.57514C34.8419 9.71539 34.862 9.87569 34.902 10.056H34.892Z" fill="#3B3B42"/>
<path d="M46.3327 7.64158C46.3528 7.58147 46.3828 7.52136 46.4129 7.48128C46.4329 7.44121 46.463 7.39112 46.493 7.34102C46.7034 6.77999 46.9438 6.239 47.2143 5.72806C47.4848 5.21712 47.7654 4.70618 48.0559 4.19524C48.7071 3.01306 49.5486 1.98116 50.5805 1.08952C51.0214 0.698804 51.5022 0.40827 52.0332 0.207901C52.4339 0.0476062 52.8247 0.0375878 53.2054 0.207901C53.5861 0.368196 53.8766 0.628675 54.087 0.989339C54.2874 1.35 54.4276 1.72068 54.5078 2.10138C54.5879 2.48209 54.648 2.86279 54.6881 3.27354C54.7382 3.73439 54.7282 4.18522 54.658 4.61601C54.5879 5.0468 54.4777 5.48761 54.3274 5.92843C54.2974 5.98854 54.2673 6.05867 54.2373 6.11878C54.1972 6.17889 54.1571 6.24902 54.1271 6.30913C53.7965 6.8902 53.4258 7.41115 52.985 7.88202C52.5542 8.35289 52.0733 8.7937 51.5623 9.19443C51.1015 9.5551 50.6106 9.88571 50.1097 10.1762C49.6088 10.4668 49.0778 10.6972 48.5067 10.8775C48.2262 10.9677 47.9557 11.0478 47.6752 11.128C47.3947 11.2081 47.1142 11.2983 46.8236 11.3785C46.8136 11.3885 46.7635 11.4185 46.6934 11.4686C46.7034 11.6089 46.7134 11.7491 46.7335 11.8794C46.7435 12.0196 46.7635 12.1599 46.7735 12.2901C46.7936 12.5907 46.8236 12.8912 46.8537 13.2018C46.8737 13.5124 46.9138 13.8129 46.9639 14.1135C47.024 14.6545 47.1041 15.1855 47.2043 15.7164C47.2945 16.2474 47.3746 16.7784 47.4347 17.3194C47.5149 17.8504 47.575 18.3813 47.6251 18.9123C47.6752 19.4433 47.7353 19.9843 47.7954 20.5253C47.8155 20.8559 47.8455 21.1765 47.8655 21.5071C47.8856 21.8377 47.8956 22.1583 47.8956 22.4889C47.8956 22.6993 47.8956 22.9197 47.8756 23.1401C47.8655 23.3605 47.8355 23.5809 47.7854 23.7913C47.7353 23.9816 47.6652 24.162 47.585 24.3423C47.5049 24.5226 47.4247 24.713 47.3546 24.8933C47.3245 24.9534 47.3045 25.0135 47.2745 25.0736C47.2444 25.1338 47.2143 25.1939 47.1943 25.254C47.1142 25.4143 47.004 25.4644 46.8537 25.4043C46.7134 25.3441 46.5832 25.274 46.463 25.1939C46.3427 25.1137 46.2426 25.0035 46.1524 24.8532C45.942 24.4725 45.7817 24.0818 45.6715 23.6811C45.5613 23.2703 45.4912 22.8496 45.4511 22.4087C45.421 22.1282 45.381 21.8678 45.3209 21.5973C45.2608 21.3368 45.2107 21.0663 45.1706 20.7858C45.1105 20.385 45.0504 19.9843 45.0103 19.5735C44.9702 19.1628 44.9101 18.752 44.85 18.3413L44.7398 17.5498C44.6897 17.1491 44.6396 16.7383 44.5895 16.3376C44.5394 15.9268 44.4994 15.5261 44.4593 15.1253C44.4092 14.7146 44.3691 14.2938 44.3391 13.8831C44.309 13.4723 44.2789 13.0515 44.2589 12.6408C44.1988 11.9595 44.1487 11.2883 44.1086 10.6171C44.0686 9.94582 44.0285 9.27458 43.9784 8.59333C43.9383 7.99222 43.8982 7.3811 43.8682 6.77999C43.8281 6.16887 43.7981 5.56776 43.778 4.96666C43.748 4.73623 43.748 4.51583 43.748 4.27538C43.748 4.04496 43.768 3.81454 43.778 3.58411C43.788 3.48393 43.8081 3.37373 43.8482 3.26352C43.8782 3.15332 43.9183 3.04312 43.9483 2.94293C43.9984 2.79266 44.1287 2.71251 44.329 2.71251C44.8801 2.72253 45.2708 2.99303 45.5012 3.50397C45.5914 3.74441 45.6615 3.99487 45.7316 4.27538C45.7917 4.58596 45.8619 4.89653 45.922 5.2071C45.9821 5.51767 46.0422 5.82824 46.1123 6.13881C46.1524 6.3492 46.1824 6.56961 46.2125 6.77999C46.2426 6.99038 46.2826 7.21078 46.3127 7.42117C46.3227 7.47126 46.3528 7.55141 46.3928 7.66161L46.3327 7.64158ZM46.5732 10.056C46.8136 9.95583 47.034 9.85565 47.2444 9.76548C47.4548 9.67532 47.6552 9.56512 47.8555 9.45491C48.2162 9.25454 48.5769 9.05418 48.9275 8.84379C49.2781 8.6334 49.6288 8.42301 49.9794 8.21263C50.1598 8.11244 50.3201 8.00224 50.4603 7.872C50.6006 7.75178 50.7509 7.61152 50.9011 7.48128C51.1316 7.28091 51.3319 7.07053 51.5022 6.8401C51.6826 6.60968 51.8529 6.37925 52.0332 6.12879C52.1735 5.91841 52.2937 5.698 52.4039 5.48761C52.5141 5.27723 52.6043 5.0468 52.6744 4.80636C52.8046 4.4457 52.8848 4.065 52.9148 3.6843C52.9549 3.3036 52.9749 2.91288 52.985 2.52216C52.985 2.42197 52.985 2.32179 52.9649 2.23162C52.9549 2.14146 52.9349 2.04127 52.9048 1.94109C52.8647 1.7307 52.7345 1.59044 52.5141 1.53033C52.3839 1.5103 52.2737 1.5103 52.1735 1.53033C52.0733 1.56039 51.9731 1.60046 51.8729 1.65056C51.5423 1.86094 51.2418 2.09137 50.9713 2.33181C50.6306 2.62234 50.3201 2.93291 50.0295 3.28356C49.739 3.62419 49.4685 3.98485 49.218 4.34551C49.1078 4.50581 48.9876 4.67612 48.8774 4.83642C48.7672 4.99671 48.647 5.16703 48.5368 5.34736C48.1461 5.94846 47.7954 6.56961 47.4949 7.21078C47.1843 7.85196 46.8938 8.49314 46.6032 9.15436C46.5431 9.29462 46.5131 9.43488 46.5131 9.57514C46.5131 9.71539 46.5331 9.87569 46.5732 10.056Z" fill="#3B3B42"/>
<path d="M65.6682 10.0561L65.4377 10.567C65.2474 11.0579 65.057 11.5388 64.8767 12.0297C64.6864 12.5106 64.496 12.9915 64.3157 13.4724C64.0652 14.1536 63.6845 14.7748 63.1636 15.3358C62.9532 15.5763 62.7027 15.7466 62.4322 15.8668C62.1517 15.977 61.8712 16.0571 61.5706 16.1072C61.5105 16.1373 61.4404 16.1473 61.3602 16.1473C61.2801 16.1473 61.22 16.1473 61.1498 16.1673C60.669 16.2275 60.2582 16.1673 59.8975 15.977C59.5369 15.7866 59.2063 15.5262 58.9057 15.2056C58.6452 14.915 58.4248 14.6045 58.2645 14.2739C58.1042 13.9432 57.964 13.5826 57.8538 13.2119C57.7536 12.9114 57.6835 12.6108 57.6434 12.3002C57.6033 11.9897 57.5632 11.6791 57.5332 11.3485C57.453 10.7173 57.443 10.1062 57.4831 9.50508C57.5232 8.90398 57.5632 8.29285 57.6033 7.68173C57.6434 7.2309 57.6935 6.78007 57.7536 6.32924C57.8137 5.87841 57.8939 5.42758 57.984 4.99679C58.0341 4.74633 58.1042 4.50589 58.1944 4.26544C58.2846 4.025 58.3848 3.78456 58.495 3.55414C58.5451 3.47399 58.5751 3.4239 58.5851 3.38382C58.6052 3.28364 58.6452 3.19347 58.6953 3.12334C58.7454 3.0432 58.8256 3.01314 58.9358 3.01314C59.076 3.00312 59.1963 3.01314 59.3165 3.03318C59.4267 3.06323 59.5369 3.12334 59.6371 3.22353C59.7873 3.38382 59.9076 3.55414 59.9977 3.72445C60.0879 3.89476 60.1179 4.09513 60.0879 4.31554C60.0879 4.41572 60.0879 4.49587 60.1079 4.54596C60.2081 5.08696 60.2682 5.62795 60.2782 6.16895C60.2883 6.70994 60.2983 7.25094 60.3183 7.79193C60.3283 8.63348 60.3584 9.46501 60.4085 10.2865C60.4586 11.108 60.5688 11.9295 60.7491 12.7611C60.8092 13.0216 60.8894 13.282 60.9795 13.5325C61.0697 13.783 61.1899 14.0134 61.3402 14.2238C61.4003 14.3039 61.4704 14.374 61.5406 14.4442C61.6107 14.5143 61.6808 14.5944 61.761 14.6746C61.9213 14.5343 62.0715 14.4041 62.2118 14.2739C62.3521 14.1436 62.4623 13.9933 62.5524 13.813C62.7127 13.4824 62.873 13.1618 63.0233 12.8312C63.1736 12.5006 63.3138 12.17 63.434 11.8294C63.6444 11.2783 63.8448 10.7273 64.0251 10.1863C64.2055 9.64534 64.3958 9.10435 64.5962 8.55333C65.0971 7.2309 65.6782 5.9285 66.3494 4.63613C66.4396 4.45579 66.5097 4.27546 66.5598 4.09513C66.6099 3.90478 66.65 3.71443 66.69 3.5341C66.8203 3.00312 66.9706 2.5022 67.1609 2.0113C67.3513 1.52039 67.5616 1.03951 67.8021 0.558625C67.8522 0.45844 67.9123 0.388311 67.9824 0.338219C68.0525 0.298145 68.1327 0.258072 68.2329 0.238035C68.3832 0.197961 68.5334 0.167906 68.6737 0.147869C68.814 0.127832 68.9742 0.137851 69.1345 0.187943C69.3149 0.248053 69.4451 0.338219 69.5453 0.448422C69.6455 0.558625 69.7256 0.688864 69.7857 0.839141C69.916 1.11966 69.9761 1.39015 69.9961 1.67067C70.0061 1.95119 69.9961 2.2317 69.9761 2.52224C69.906 3.36379 69.8258 4.19532 69.7457 5.02684C69.6655 5.85837 69.6054 6.6899 69.5353 7.53145C69.4852 8.22272 69.4151 8.914 69.3349 9.60527C69.2548 10.2965 69.1646 10.9778 69.0644 11.659C69.0243 11.9396 68.9843 12.2 68.9442 12.4705C68.9041 12.731 68.854 13.0015 68.8039 13.282C68.7739 13.4824 68.7538 13.6828 68.7338 13.8831C68.7037 14.0835 68.6837 14.2839 68.6537 14.4842C68.5635 15.0252 68.4833 15.5562 68.4032 16.0972C68.323 16.6282 68.2329 17.1692 68.1327 17.7102C68.0726 18.0508 68.0025 18.3914 67.9223 18.722C67.8422 19.0627 67.772 19.4033 67.6919 19.7539C67.5116 20.5053 67.2511 21.1966 66.9004 21.8278C66.5498 22.4589 66.0889 23.03 65.5079 23.5409C64.7264 24.2222 63.8648 24.7331 62.9131 25.0837C62.6025 25.1939 62.2819 25.2941 61.9714 25.3643C61.6608 25.4444 61.3302 25.4845 60.9896 25.4945C60.4886 25.5246 60.0077 25.4845 59.5369 25.3843C59.076 25.2841 58.6252 25.0938 58.2044 24.8032C58.1443 24.7632 58.0742 24.7331 57.994 24.703C57.9139 24.673 57.8538 24.6329 57.7837 24.6029C57.5332 24.4526 57.3028 24.2823 57.0824 24.0919C56.872 23.9016 56.6816 23.6812 56.5213 23.4307C56.2308 23.03 55.9904 22.6092 55.79 22.1784C55.5896 21.7476 55.4694 21.2868 55.4293 20.7959C55.3993 20.5354 55.3892 20.2749 55.3792 20.0144C55.3792 19.7539 55.3993 19.5035 55.4594 19.253C55.5195 18.9424 55.6297 18.6419 55.79 18.3714C55.9503 18.0909 56.1907 17.8805 56.5113 17.7302C56.6516 17.6701 56.7818 17.6801 56.902 17.7703C57.1525 17.9606 57.2827 18.2011 57.2927 18.5016C57.2927 18.9024 57.3629 19.2831 57.4931 19.6337C57.6234 19.9844 57.7736 20.325 57.954 20.6456C58.1543 21.0263 58.4148 21.3268 58.7454 21.5573C59.076 21.7877 59.4267 21.948 59.7974 22.0381C60.1781 22.1283 60.5588 22.1383 60.9695 22.0882C61.3703 22.0281 61.7409 21.8979 62.0816 21.6875C62.883 21.1866 63.4641 20.5053 63.8348 19.6337C63.935 19.4333 64.0151 19.223 64.0652 19.0026C64.1153 18.7822 64.1654 18.5617 64.2155 18.3514C64.3257 17.8705 64.4359 17.3996 64.5261 16.9187C64.6162 16.4378 64.7164 15.967 64.8166 15.4861C64.9268 14.8549 65.037 14.2338 65.1372 13.6227C65.2374 13.0115 65.3476 12.3804 65.4578 11.7392L65.6882 10.4368C65.6982 10.3767 65.7082 10.3166 65.7183 10.2665C65.7183 10.2164 65.7383 10.1663 65.7483 10.1162H65.6581L65.6682 10.0561Z" fill="#3B3B42"/>
</svg>
