<svg width="19" height="15" viewBox="0 0 19 15" fill="none" xmlns="http://www.w3.org/2000/svg">
<path d="M16.1088 1.23136C18.2547 4.40865 19.3144 7.99255 18.9182 12.1184C18.9166 12.1359 18.9075 12.1519 18.8933 12.1624C17.2683 13.3641 15.6939 14.0934 14.1416 14.577C14.1295 14.5807 14.1166 14.5805 14.1046 14.5764C14.0927 14.5723 14.0823 14.5646 14.0749 14.5543C13.7163 14.0517 13.3904 13.5219 13.1049 12.9656C13.0886 12.9328 13.1035 12.8934 13.1372 12.8805C13.6548 12.6841 14.1469 12.4487 14.6202 12.1701C14.6575 12.1481 14.6599 12.0943 14.6254 12.0684C14.525 11.9933 14.4254 11.9144 14.3302 11.8355C14.3124 11.8209 14.2884 11.818 14.2682 11.8278C11.1952 13.2569 7.82888 13.2569 4.71953 11.8278C4.69934 11.8187 4.67536 11.8218 4.65802 11.8362C4.56302 11.9151 4.46327 11.9933 4.36376 12.0684C4.32932 12.0943 4.33217 12.1481 4.36969 12.1701C4.84303 12.4435 5.33513 12.6841 5.85193 12.8814C5.88542 12.8943 5.90133 12.9328 5.88471 12.9656C5.60541 13.5227 5.27956 14.0525 4.91428 14.555C4.89837 14.5753 4.87224 14.5846 4.84754 14.577C3.3026 14.0934 1.72822 13.3641 0.103242 12.1624C0.0897044 12.1519 0.0799669 12.1352 0.0785419 12.1177C-0.252533 8.54888 0.422204 4.93533 2.88532 1.23064C2.89126 1.22083 2.90028 1.21318 2.91073 1.20864C4.12269 0.648473 5.42111 0.236363 6.77818 0.00100827C6.80288 -0.00281863 6.82758 0.00866209 6.84041 0.0306668C7.00808 0.329644 7.19974 0.713052 7.32942 1.02638C8.75988 0.806333 10.2127 0.806333 11.6731 1.02638C11.8027 0.719749 11.9877 0.329644 12.1547 0.0306668C12.1607 0.0197505 12.1699 0.011005 12.181 0.00567872C12.1922 0.000352486 12.2048 -0.00128212 12.2169 0.00100827C13.5747 0.237081 14.8731 0.649191 16.0841 1.20864C16.0948 1.21318 16.1036 1.22083 16.1088 1.23136ZM8.05664 8.01694C8.07161 6.96191 7.30781 6.0889 6.34902 6.0889C5.39807 6.0889 4.64163 6.95426 4.64163 8.01694C4.64163 9.07939 5.41303 9.94475 6.34902 9.94475C7.30021 9.94475 8.05664 9.07939 8.05664 8.01694ZM14.3699 8.01694C14.3848 6.96191 13.621 6.0889 12.6625 6.0889C11.7113 6.0889 10.9549 6.95426 10.9549 8.01694C10.9549 9.07939 11.7263 9.94475 12.6625 9.94475C13.621 9.94475 14.3699 9.07939 14.3699 8.01694Z" fill="white"/>
</svg>
