<svg width="70" height="24" viewBox="0 0 70 24" fill="none" xmlns="http://www.w3.org/2000/svg">
<path d="M11.5091 1.33008H11.663C19.6875 19.7095 20.2262 20.7538 20.2262 20.7538C21.3694 23.2931 22.4466 23.326 23.0732 23.381V23.6338H11.9818V23.381C14.5211 23.381 12.6194 19.6765 12.6194 19.6765L11.6081 17.489H5.38632C4.74875 18.951 5.32036 23.381 9.12376 23.381V23.6338H0V23.381C0.956346 23.315 2.66018 23.0622 5.10051 17.489L11.5091 1.33008ZM8.31032 10.0801L5.48525 17.2142H11.4761L8.31032 10.0801Z" fill="#3B3B42"/>
<path d="M31.1524 23.392V23.6448H23.2269V23.392C24.436 23.0402 24.458 21.7102 24.458 20.0613V3.61653C24.458 2.50629 24.0733 2.06659 22.7762 1.58292V1.33009L29.8443 0V20.0613C29.8443 21.8091 29.9982 23.0732 31.1414 23.392H31.1524Z" fill="#3B3B42"/>
<path d="M39.9361 23.3919V23.6448H32.0105V23.3919C33.2197 23.0402 33.2417 21.6771 33.2417 20.0612V12.3225C33.2417 11.2123 32.8899 10.7726 31.5928 10.2889V10.0361L38.628 8.70598V20.0502C38.628 21.798 38.7819 23.0622 39.9251 23.3809L39.9361 23.3919ZM32.5822 4.8806C32.5822 3.19875 33.9122 1.86866 35.5941 1.86866C37.2759 1.86866 38.639 3.19875 38.639 4.8806C38.639 6.56245 37.2759 7.89254 35.5941 7.89254C33.9122 7.89254 32.5822 6.56245 32.5822 4.8806Z" fill="#3B3B42"/>
<path d="M51.5655 22.2158C51.5655 22.2158 50.3563 23.9306 46.6848 23.9306C43.0133 23.9306 41.0457 22.8534 41.0457 22.8534V18.6982H41.3315C41.969 21.6442 44.5963 23.6448 46.6848 23.6448C48.9383 23.6448 49.4439 21.0176 47.0366 19.4347L43.8378 17.5C40.8588 15.5324 40.0673 12.3995 42.002 10.245C42.002 10.245 43.1782 8.72804 46.7838 8.72804C50.3893 8.72804 51.9502 9.61843 51.9502 9.61843V12.8502H51.6644C51.0928 10.0032 48.6195 9.01385 46.7838 9.01385C44.7282 9.01385 43.7388 11.0694 46.4979 12.8172L49.6968 14.8179C52.5768 16.5657 53.3133 20.1382 51.5655 22.2378V22.2158Z" fill="#3B3B42"/>
<path d="M69.989 21.6114C69.5493 23.0075 67.9004 23.9199 65.8998 23.9199C65.8998 23.9199 62.3822 23.9199 62.0964 21.0728C61.6787 22.7217 60.0628 23.9199 57.8203 23.9199C56.6111 23.9199 53.863 23.3812 53.863 20.6881C53.863 17.5222 56.4353 16.9176 62.0744 15.5876V13.5539C62.0744 10.2562 60.2057 8.48641 58.0182 9.61863C58.0182 9.61863 57.3256 10.0254 58.4029 10.4101C58.9415 10.597 59.2933 11.0477 59.5461 11.6193C60.0188 12.7955 59.4802 14.0596 58.315 14.5652C57.1717 15.0049 55.8746 14.4663 55.402 13.3341C55.0832 12.5097 55.2481 11.5643 55.7867 10.9927C56.1714 10.575 56.732 10.0144 57.9082 9.3768C59.3373 8.61832 60.8872 8.70626 60.8872 8.70626C65.0424 8.70626 67.3508 11.3005 67.3508 15.0489V19.7757C67.3508 19.7757 67.3508 22.0621 68.8677 21.9962C68.8677 21.9962 69.6592 21.9962 69.8131 21.4575L70 21.6114H69.989ZM62.0634 15.9063C59.4692 16.4779 59.4912 18.4126 59.4912 19.8966C59.4912 19.8966 59.4582 21.9852 60.7223 21.9852C61.261 21.9852 61.7006 21.5455 62.0524 20.776V15.8953L62.0634 15.9063Z" fill="#3B3B42"/>
</svg>
