<svg width="44" height="46" viewBox="0 0 44 46" fill="none" xmlns="http://www.w3.org/2000/svg">
<path d="M16.8007 35.1288C7.53677 35.1288 0 27.2495 0 17.5644C0 7.87935 7.53677 0 16.8007 0C26.0647 0 33.6015 7.87935 33.6015 17.5644C33.6015 27.2495 26.0647 35.1288 16.8007 35.1288ZM16.8007 3.59374C9.43225 3.59374 3.43749 9.86091 3.43749 17.5644C3.43749 25.2679 9.43217 31.5351 16.8007 31.5351C24.1693 31.5351 30.164 25.2679 30.164 17.5644C30.164 9.86091 24.1692 3.59374 16.8007 3.59374ZM43.9999 35.2187V24.9765C43.9999 21.342 42.2655 17.9758 39.3604 15.972C38.5683 15.4257 37.502 15.654 36.9793 16.4825C36.4565 17.3108 36.6752 18.4253 37.4675 18.9719C39.4054 20.3086 40.5624 22.5532 40.5624 24.9766V35.2188C40.5624 39.182 37.4783 42.4062 33.6874 42.4062H23.8906C21.6394 42.4062 19.5271 41.2504 18.2401 39.3145C17.6985 38.4995 16.6272 38.2981 15.8479 38.8643C15.0684 39.4306 14.8757 40.5504 15.4173 41.3652C17.3465 44.2673 20.5141 46 23.8906 46H33.6875C39.3737 45.9999 43.9999 41.1634 43.9999 35.2187Z" fill="white"/>
</svg>
