<svg width="102" height="38" viewBox="0 0 102 38" fill="none" xmlns="http://www.w3.org/2000/svg">
<g clip-path="url(#clip0_1_92)">
<path d="M11.8649 19.1005C12.036 19.2112 12.2071 19.3219 12.3681 19.3823C13.6663 20.0566 14.6727 20.9623 15.7495 21.8579C17.2691 23.2064 18.3358 24.9575 18.8994 27.091C19.2415 28.5502 19.0101 30.1906 18.054 31.8812C17.7722 32.4448 17.4301 33.0687 16.9873 33.5719C16.8162 33.7933 16.5344 34.1355 16.2526 34.3569C15.1859 35.3733 13.9984 36.0475 12.7103 36.5507C12.0863 36.8929 11.4121 36.9432 10.7982 36.8929C10.295 36.8929 9.84215 36.9533 9.33898 37.235C8.88612 37.4564 8.49364 37.5772 7.99046 37.7382C6.81302 38.02 5.7966 38.0804 4.78019 37.9093C3.26059 37.6879 1.79131 37.235 0.835271 36.2186C-0.0100677 35.3129 -0.231466 34.1355 0.271712 32.5555C0.664191 31.5995 1.17743 30.6434 1.90201 29.6874C2.52595 28.7917 3.25052 27.886 4.15624 27.101C4.32733 26.9903 4.43802 26.7589 4.54872 26.5979C5.00158 25.7525 5.22298 25.5814 6.06832 25.7022C6.41048 25.5915 6.63188 25.0783 7.08474 25.2494C6.86334 25.3601 6.69226 25.4708 6.3501 25.6418C6.63188 25.7022 6.80296 25.7525 6.91366 25.7525C6.91366 26.0343 6.91366 26.2557 6.97404 26.5375C7.03442 26.7086 6.97404 26.8796 6.80296 27.101C6.4608 27.5539 6.17902 28.0068 5.78654 28.5099C5.22298 29.2446 4.8305 29.9188 4.7198 30.7642C4.6091 31.2674 4.6091 31.7202 4.54872 32.2838C4.48834 32.6763 4.65942 32.958 5.0519 33.0687C5.50476 33.2398 6.06832 33.2901 6.63188 33.1794C7.6483 33.0084 8.71504 32.787 9.73146 32.3341C10.7479 31.8812 11.8146 31.4888 12.831 30.9856C13.5657 30.6434 14.3506 30.2006 15.0249 29.5767C15.5281 29.1842 15.6991 28.7313 15.5281 28.3892C15.1356 27.091 14.6223 25.9639 13.5556 25.1286C11.8146 23.7197 9.78177 22.4819 7.759 21.3044C6.52118 20.5698 5.39406 19.7848 4.32733 18.8791C3.08951 17.9231 2.18379 16.6853 1.50953 15.3871C0.211331 13.2435 1.39883 10.315 3.20021 8.12118C4.8305 6.0984 7.02436 4.73982 9.2786 3.50201C9.95285 3.22023 10.6271 3.04915 11.2511 2.76737C14.6827 1.52955 17.893 1.41885 20.9926 1.64025C21.9486 1.75095 22.8543 1.92203 23.8104 2.03273C24.8268 2.14343 25.7828 2.37489 26.5175 2.93845C26.7992 3.15984 26.9703 3.39131 26.7992 3.8341C26.7389 3.9448 26.7389 4.11588 26.7389 4.22658C26.6785 4.50836 26.6785 4.79014 26.5678 5.07192C26.1149 6.02796 25.7828 6.984 25.7224 7.94003C25.6621 8.33251 25.3803 8.89607 25.0985 9.34893C24.8771 9.80179 24.5349 10.1339 24.3135 10.5364C24.0922 10.9289 23.8104 11.2107 23.4078 11.4422C22.7839 11.7239 22.2807 12.0057 21.6668 12.1768C21.3247 12.3479 20.9926 12.3479 20.7611 12.1768C19.9158 11.8346 19.0201 11.6736 18.1144 11.5529C16.313 11.3315 14.5116 11.0497 12.5392 11.1C11.9756 11.1604 11.3618 11.2107 10.7982 11.3818C10.1239 11.4925 9.49999 11.6636 8.88612 11.7742C4.8305 12.7907 7.19544 15.7192 9.22828 17.1784C10.134 17.7419 11.0297 18.4162 11.875 19.0905L11.8649 19.1005Z" fill="#3B3B42"/>
<path d="M31.8512 25.5716C31.7908 25.5112 31.6298 25.5112 31.5694 25.6823C31.509 25.6823 31.509 25.7427 31.509 25.793C31.2876 26.3566 31.0058 26.6987 30.4926 26.578C30.2108 26.8597 30.1001 27.1415 29.8686 27.3629C29.6472 27.4736 29.3655 27.7051 29.3051 28.0976C29.3051 28.2082 29.2447 28.2686 29.1944 28.3793C28.9126 28.7718 28.6308 29.0536 28.4094 29.3957C28.188 29.9593 27.7855 30.3015 27.393 30.6336C27.2219 30.855 26.9401 31.026 26.7691 31.4185C26.7691 31.4789 26.6584 31.6399 26.4873 31.6399C26.2055 31.7003 25.9237 31.9217 25.6419 32.1431C25.018 32.4853 24.4041 32.767 23.7299 32.8174C23.1059 32.8174 22.5524 32.757 21.9889 32.4752C21.0932 31.972 20.751 31.016 20.6403 29.7782C20.6403 29.4964 20.6403 29.2146 20.751 28.9328C20.8617 27.1918 21.2039 25.4408 21.6568 23.6998C21.9385 22.7437 22.2807 21.8984 22.6128 21.0531C23.3474 19.5335 23.9613 17.9032 24.696 16.3836C24.696 16.2125 24.7563 16.1622 24.8067 15.9911C25.1488 14.6929 25.8231 13.4551 26.4973 12.2776C26.7187 11.9355 26.8395 11.6034 27.0609 11.1505C27.3427 11.0901 27.6245 11.0901 27.8459 11.3216C28.4698 11.7141 29.0837 12.1669 29.7579 12.5594C29.8686 12.6198 30.0397 12.7305 30.0397 12.8412C30.4322 13.6865 30.9454 14.4715 31.1668 15.4275C31.2775 15.9911 31.3379 16.4943 31.4486 17.0578C31.5593 17.6818 31.509 18.356 31.2272 18.9196C31.0058 19.3724 30.885 19.8756 30.6637 20.3285C30.6033 20.6103 30.4926 20.892 30.4423 21.1738C30.1001 22.3009 29.768 23.4281 29.2648 24.5552C29.2648 24.5552 29.2044 24.6156 29.2044 24.6659C29.2044 24.6659 29.2044 24.7263 29.0937 24.837C29.0334 25.2294 28.9227 25.6823 28.7013 26.1352C28.812 26.0748 28.9227 26.0748 28.983 26.0245C29.5466 25.4005 30.1605 24.6759 30.724 24.0017C31.7405 22.8746 32.6361 21.7474 33.5921 20.6203C33.9846 20.1675 34.3268 19.8354 34.6589 19.3221C35.7256 17.8629 36.9131 16.5647 38.0906 15.2665C38.312 15.0451 38.5434 14.874 38.7145 14.8137C39.2177 14.5923 39.7309 14.5319 40.1234 14.5923C40.3448 14.703 40.5159 14.7633 40.6266 14.874C41.0794 15.3269 41.4719 15.8301 41.9248 16.2226C42.2066 16.444 42.3776 16.7861 42.5487 17.239C42.6594 17.6314 42.7701 17.9736 42.8305 18.4265C42.9412 18.99 42.9412 19.5536 42.7701 20.1675C42.3776 21.4657 42.0355 22.6431 41.5323 23.8306C41.4216 24.3338 41.1901 24.847 41.0794 25.4609C41.2505 25.4005 41.4216 25.2898 41.4719 25.2395C42.599 24.6156 43.6154 23.7199 44.5715 22.7035C45.4772 21.8581 46.4332 21.0732 47.4396 20.5096C47.6107 20.4492 47.7214 20.3385 47.8925 20.1675C48.2346 19.8857 48.5164 19.9461 48.7378 20.1675C49.0196 20.3889 49.1303 20.7914 49.5228 20.9524C49.8045 21.0631 49.9756 21.3449 50.197 21.6267C50.1366 22.1299 50.1366 22.5827 50.197 23.0356C50.197 23.4281 50.0863 23.8205 49.9152 24.2734C49.5731 24.4445 49.8045 24.8973 49.5731 25.1791C49.5127 25.8534 49.402 26.5276 49.2913 27.1516C49.2309 27.7755 49.2309 28.329 49.2913 28.953C49.2913 29.3454 49.402 29.5165 49.6838 29.6272C50.5291 29.7983 53.4576 27.7151 54.0212 26.9805C55.0376 25.8534 55.8829 24.5552 56.6679 23.2067C56.7283 22.9249 56.839 22.6431 57.01 22.472C57.1207 22.6431 57.1811 22.6431 57.1207 22.6934C56.9497 23.5388 57.2314 23.0356 57.1207 23.9916C57.1207 23.7702 56.839 24.9477 56.6679 24.837C56.5572 24.837 56.5572 25.008 56.4465 25.1187C56.1043 25.7427 55.7722 26.2962 55.4904 26.9805C55.4904 27.2019 55.3194 27.373 55.269 27.4837C54.7659 27.8258 54.4237 28.2183 54.0312 28.6108C54.0312 28.7819 53.8602 28.8322 53.7495 28.8926C53.4677 29.5165 51.1027 31.1971 50.4889 31.1971C50.2071 31.1971 48.8586 31.0864 48.5768 30.855C48.0132 30.3518 47.1176 29.7278 46.7754 28.9429C46.4936 28.2686 46.4936 27.4233 46.715 26.578C46.9968 25.1691 47.339 23.8205 47.8421 22.472C47.9025 22.3009 47.9528 22.0795 47.9528 21.9085C48.0132 21.7978 47.9528 21.7374 47.9528 21.5663C47.6107 21.6267 47.3893 22.0192 47.1075 22.0695C46.8257 22.1802 46.5439 22.2909 46.3225 22.462C46.2823 22.8377 46.1515 23.1932 45.9301 23.5287C45.7087 23.7501 45.5879 24.0319 45.3665 24.3137C45.0847 24.1426 44.803 24.3137 44.5212 24.535C44.0683 24.9275 43.6758 25.2697 43.1727 25.6622C43.062 25.7729 42.8909 25.8332 42.7802 26.0546C42.277 26.6786 41.6531 27.1214 40.9788 27.6346C40.9184 27.7453 40.8077 27.7453 40.697 27.9164C40.3549 28.5907 39.6806 28.9328 39.1774 29.4964C39.0063 29.7178 38.8353 29.9492 38.6139 30.1706C37.7081 30.9053 36.7018 31.1871 35.7457 31.0764C35.2929 31.016 34.9004 30.7342 34.5582 30.3417C34.1658 29.9492 33.9947 29.4461 34.0551 28.651C34.0551 28.0271 34.1658 27.4736 34.3972 26.8497C35.303 24.0319 36.6515 21.5562 38.2818 19.1913C38.6742 18.4567 39.1875 17.7824 39.58 16.9974C39.8014 16.776 39.9724 16.4943 39.8617 16.1521C39.6907 15.981 39.4693 15.981 39.2378 16.2125C39.1271 16.3836 38.956 16.4943 38.7346 16.6653C38.1711 17.2289 37.6075 17.7925 37.0439 18.2453C36.7018 18.6378 36.42 18.98 36.1986 19.4831C35.9168 20.1574 35.5747 20.721 35.1319 21.2241C34.6287 21.7273 34.1758 22.1802 33.8337 22.7437C33.4915 23.1966 33.2701 23.6998 32.9883 24.1526C32.8776 24.4344 32.6462 24.8269 32.4852 25.1087C32.3745 25.2798 32.2034 25.5012 32.0927 25.6722C32.0323 25.6722 31.9216 25.5615 31.8713 25.5615L31.8512 25.5716Z" fill="#3B3B42"/>
<path d="M56.8993 18.0842L56.9597 18.0238C57.1308 17.8024 57.2415 17.742 57.4126 17.6313C58.0365 17.5206 59.4354 16.5042 59.9989 16.8463C60.17 17.0677 60.7336 17.3495 60.955 17.581C61.1764 17.8628 61.2367 18.2552 61.0657 18.8188C60.7235 19.5534 60.331 20.2277 59.8882 21.1234C59.7775 21.4655 59.6668 21.7473 59.6064 21.9687C59.385 22.4719 59.1536 23.1562 58.8718 23.6594C58.6504 24.3336 59.6568 22.2002 59.5461 22.7637C59.5461 22.9348 59.4354 23.1059 59.375 23.2166C58.9221 24.3437 58.9221 24.1223 58.8718 25.1287C58.8718 25.6922 58.6504 28.5603 58.7007 29.0736C58.7611 29.466 58.9825 29.6975 59.1536 29.9189C59.375 30.0296 59.6568 30.2611 59.9989 30.3718C60.2807 30.5932 60.5625 30.4825 60.9046 30.4321C65.5741 28.7415 63.8935 28.1276 66.5905 25.2494C67.0937 24.5148 67.7177 23.8405 67.9994 22.9449C67.9994 22.9046 68.0565 22.7906 68.1705 22.6027C68.4523 23.1663 67.8284 23.9512 68.6234 24.1223C67.446 26.2658 66.6006 29.3553 64.6785 30.4825C64.1149 31.2171 60.2908 34.5884 57.8151 33.6324C57.0302 33.9141 56.2955 33.1292 55.4502 32.787C54.8866 32.5656 54.3231 32.1128 53.8199 31.5492C53.5381 30.8146 53.2563 30.0296 53.2563 29.295C53.1456 28.9528 53.1456 28.5603 53.1456 28.2785C53.3167 27.6043 53.206 26.3061 53.4274 25.8532C53.4878 25.5714 53.5985 25.2897 53.5985 24.9475C53.7092 24.8871 53.5985 24.6053 53.991 24.555C54.0514 24.555 54.1017 24.3336 54.1621 24.2733C54.4438 23.8808 54.5042 23.5386 54.786 23.1461C54.786 23.1461 53.6086 24.3336 54.2828 23.2065C54.7357 22.0794 55.742 20.8416 56.0842 20.0566C56.0842 19.9459 56.1949 19.7748 56.1949 19.7748C56.366 19.4327 56.5371 19.2113 56.4163 18.8188C56.3559 18.5974 56.4163 18.3659 56.5874 18.0338C56.6981 18.0942 56.7585 18.1445 56.9295 18.0942L56.8993 18.0842ZM62.0821 11.9454C61.9714 12.1165 61.8607 12.2272 61.8003 12.4486C61.8003 12.509 61.8003 12.6197 61.6896 12.7303C61.5185 12.9014 61.3474 13.1228 61.126 13.4046C61.0153 13.5757 60.5625 13.7971 60.2807 13.8575C60.17 13.7971 59.9989 13.9178 59.8882 14.0285C59.5461 14.2499 59.3247 14.1996 59.1033 14.0889C58.9322 13.9782 58.8215 13.9782 58.6504 13.9782C58.429 13.9782 58.2579 13.9782 58.0265 13.9178C58.0868 13.8575 58.1372 13.7468 58.1975 13.6965C58.1975 13.5254 58.3082 13.3543 58.3686 13.1329C58.4793 12.8511 58.59 12.68 58.7611 12.3983C58.7611 12.2876 58.9322 12.1769 58.9322 12.1165C58.9322 11.7743 59.214 11.4925 59.385 11.1604C59.4957 10.9894 59.6064 10.8183 59.7272 10.6573C59.8379 10.5466 59.9486 10.4359 60.0694 10.4359C60.1801 10.3755 60.2908 10.3755 60.3511 10.4359C60.3511 10.5466 60.4618 10.5466 60.5725 10.4962C60.6832 10.4359 60.7436 10.3855 60.7939 10.4359C61.0153 10.5466 61.2971 10.6069 61.5286 10.6573C61.9211 10.8283 62.2028 11.1101 62.4343 11.5026C62.2632 11.6737 62.2129 11.8448 62.0921 11.9555L62.0821 11.9454Z" fill="#3B3B42"/>
<path d="M83.759 25.5213C83.4772 26.0848 82.5212 27.3226 82.5212 27.9466C82.4608 28.007 82.2998 28.168 82.179 28.2284C82.0079 28.3994 81.8368 28.6208 81.7261 28.9026C81.6154 29.1844 81.4444 29.2951 81.3337 29.5266C80.5487 30.9354 80.0355 31.7204 78.7473 32.9582C78.4052 33.24 75.4264 36.1081 75.205 36.3899C73.5747 37.7384 71.3808 37.1245 69.7404 37.1749C69.2876 37.1749 68.8347 37.1145 68.563 36.9535C68.0598 36.6717 66.9327 36.2188 66.5905 35.7156C66.0874 34.4778 64.7892 33.6325 64.6785 31.8915C64.6181 31.4386 64.3967 31.1568 64.3363 30.704C64.3967 28.9026 64.6785 27.1012 64.8999 25.2395C65.242 23.9413 65.5238 22.5324 65.7452 21.2442C66.3088 18.8189 66.4799 18.5371 67.5466 16.3433C68.1101 14.8841 68.6133 14.7633 69.1769 13.3041C69.5694 12.5191 70.0222 11.7241 70.4751 11.0499C70.8172 10.2045 71.3808 9.41957 71.884 8.57423C72.9507 6.71247 74.1382 5.08217 75.376 3.73366C76.2214 2.88832 77.117 1.99266 77.9624 1.25802C78.4655 0.865542 78.9788 0.412682 79.482 0.241602C79.653 0.130903 79.8241 0.0705215 79.9851 0.0202037C80.7701 -0.0401776 81.5047 0.080585 82.0683 0.644144C82.6319 1.14732 82.8029 1.94234 82.6319 3.00908C82.5212 3.68334 82.4608 4.3576 82.2897 4.98154C82.2293 5.48471 82.0079 5.93758 81.7261 6.50113C81.3337 7.45717 80.8808 8.36289 80.2669 9.25855C79.8744 9.99319 79.4216 10.7178 79.0291 11.4524C78.3548 12.4688 77.7913 13.5356 77.117 14.4916C75.9396 16.0716 74.9232 17.7623 73.8564 19.3322C72.1154 22.321 72.2765 22.8242 71.6626 25.803C71.4412 26.9905 71.5519 27.6648 71.4915 28.8422C71.5519 29.1844 71.7129 31.3782 71.7733 31.5996C71.9444 32.3846 72.1154 32.6664 72.4475 33.401C72.5582 33.6224 73.3432 33.7935 73.625 33.9042C74.0175 34.186 77.0063 32.1632 77.3988 31.8814C78.3045 31.3782 79.0291 30.5329 79.8241 29.7379C80.6695 28.9529 81.0619 28.0472 81.7966 26.9805C82.813 25.632 83.1451 24.5048 84.2219 23.0356C85.0069 22.9249 84.5641 24.1023 83.769 25.5112L83.759 25.5213ZM74.7521 15.3873C76.5535 12.5191 76.8352 12.0663 78.4655 8.96671C79.0895 7.77921 79.5927 6.60177 80.2065 5.42433C80.4883 4.57899 80.6594 3.73366 80.7701 2.88832C80.8808 2.60654 80.8808 2.43546 80.599 2.54616C80.3172 2.60654 80.1462 2.71724 79.9751 2.82794C79.2404 3.10972 78.5662 3.67327 78.063 4.45823C77.6705 4.91109 77.3887 5.41427 76.9359 5.86713C76.4327 6.49107 76.1509 7.10495 75.9195 7.83959C75.6377 8.40315 75.3559 9.0774 75.0741 9.64096C74.6816 10.8184 74.1181 12.0059 73.5545 13.1833C73.3331 13.7469 73.1621 14.3708 72.9306 14.9243C72.2563 16.8364 72.5381 15.8804 71.9142 17.7924C71.7431 18.2453 71.8538 19.5334 72.5884 18.7485C73.4338 17.5107 73.9973 16.6653 74.732 15.3671L74.7521 15.3873Z" fill="#3B3B42"/>
<path d="M86.5667 22.9852C86.5667 23.0959 86.456 23.2066 86.3453 23.267C86.2849 23.3274 86.1742 23.3777 86.1742 23.5488C86.1139 23.7702 86.0635 23.8306 85.8925 23.8909C85.7818 23.9513 85.7818 24.0016 85.7214 24.3438C85.8321 24.3438 85.8925 24.3438 85.9428 24.4042V24.4646H85.5503C85.6107 24.2935 85.6107 24.1224 85.6107 24.0117H85.5C85.4396 24.4042 85.3893 24.7967 85.3289 25.1992C85.4396 25.2596 85.5 25.3099 85.5503 25.3099C85.6107 25.7024 85.6107 26.0445 85.6107 26.437C85.6107 26.8295 85.7214 27.1717 85.8321 27.4534C86.0032 27.6748 86.456 28.9127 86.617 29.1441C87.402 29.9291 88.358 30.9455 89.2637 31.0059C89.5455 31.0663 91.1758 30.7845 91.4576 30.7241C92.8061 30.3316 94.1043 29.597 95.3421 28.6409C96.2982 27.9063 97.2039 27.061 98.1599 26.276C98.2203 26.2156 98.2706 26.1653 98.331 26.1049C98.6732 25.7125 99.0053 25.3703 99.3474 24.9778C99.9714 24.3539 100.525 23.74 101.038 23.0054C101.209 22.7236 101.38 22.4418 101.712 22.3311C101.602 22.8343 101.491 23.2871 101.26 23.74C101.199 23.9111 101.088 24.0822 100.978 24.1929C100.636 24.5853 100.354 24.9275 100.132 25.3804C99.9613 25.6018 99.7399 25.8332 99.5688 26.0546C99.5085 26.115 99.4581 26.2257 99.3474 26.3968C99.5185 26.3364 99.6292 26.2861 99.8003 26.2257C99.7399 26.5679 99.4581 26.6182 99.4078 26.9C99.4682 26.9603 99.4682 27.0106 99.5789 27.071C99.4078 27.3528 99.2367 27.5239 99.0153 27.7453C98.6732 28.0271 98.3411 28.3692 98.0593 28.7013C97.5561 29.2649 96.9926 29.7177 96.429 30.1605C96.1472 30.3819 95.9258 30.6134 95.644 30.7845C95.4226 30.9556 95.1912 31.0663 94.9698 31.2373C94.6276 31.4084 94.2955 31.5795 93.9534 31.8009C93.3898 32.1431 92.7759 32.4248 92.152 32.5355C91.9809 32.5959 91.8098 32.6462 91.6488 32.7066C90.9746 32.928 90.3003 33.0488 89.626 33.0991C88.8411 33.2098 85.5201 32.5959 84.7855 32.3141C82.813 31.5292 82.4205 30.5732 81.5249 29.7781C81.1827 29.4963 80.9009 29.0435 80.7399 28.5906C80.4581 27.856 80.3978 27.071 80.3474 26.2257C80.3474 24.4847 80.8003 22.794 81.5249 21.214C81.6389 20.9859 81.6758 20.7042 81.6356 20.3687C81.3538 20.5398 81.1827 20.6505 81.072 20.9926C80.9009 21.4958 80.6795 21.9487 80.3978 22.4519C80.3978 21.9487 80.6192 21.6065 80.7902 21.214C81.2431 20.1976 81.7463 19.2416 82.3702 18.3459C82.9942 17.3899 83.6684 16.5446 84.4534 15.7596C85.2383 14.9143 86.0837 14.1796 86.9894 13.6161C87.2108 13.5054 87.3819 13.445 87.5529 13.3343C87.8347 13.2236 88.1165 13.1632 88.2876 13.445C88.4587 13.6161 88.6801 13.5557 88.7908 13.6664C88.9618 13.7771 89.0122 14.0085 89.1329 14.1192C89.6965 14.401 91.84 14.9646 92.3432 15.2967C92.5143 15.4074 92.625 15.6388 92.7357 15.8602C93.0175 16.3634 93.2389 16.927 93.6414 17.2691C93.7521 17.3798 93.8125 17.6113 93.8628 17.7723C93.9735 18.4466 94.0339 19.0705 93.8628 19.7951C93.7521 20.58 93.4099 21.3147 93.0175 21.9889C92.7961 22.3814 92.5646 22.7236 92.3935 23.1764C92.2828 23.5689 92.0514 23.9111 91.83 24.3036C91.6086 24.7564 91.206 25.0382 90.8135 25.1489C90.4714 25.32 90.0789 25.3703 89.7468 25.32C89.5757 25.2596 89.4046 25.32 89.2939 25.0986C89.2939 25.0382 89.2336 25.0382 89.2336 25.0382C88.7807 25.0986 88.4989 24.5853 88.1668 24.4143C88.1064 24.3539 88.0561 24.1929 88.0561 24.1325C88.1668 23.9111 88.0561 23.7903 87.9957 23.6293C87.7743 23.1764 87.5429 22.6733 87.2611 22.2204C87.2007 22.0493 87.0397 21.999 86.8686 22.16C86.8082 22.4418 86.5868 22.6632 86.5868 23.0054L86.5667 22.9852ZM81.223 28.0573C81.2833 28.2283 81.3337 28.339 81.394 28.5101C81.394 28.6812 81.5651 28.7919 81.4544 29.0133C81.394 28.9529 81.3437 28.9529 81.3437 28.9026C81.062 28.339 80.9513 27.6044 80.8406 26.8798C80.7802 26.8194 80.8406 26.7691 80.8406 26.7087C80.8406 25.8634 80.8406 25.0784 81.062 24.2331C81.1223 24.062 81.1727 23.8909 81.1727 23.7299V23.3375C81.0016 23.6796 80.8909 23.901 80.8305 24.1224C80.7701 24.4042 80.7198 24.6256 80.6594 24.9074C80.438 26.3666 80.4883 27.7252 81.1123 28.9026C81.223 29.124 81.394 29.2951 81.5651 29.5265C81.6758 29.6372 81.7865 29.6976 81.9576 29.7479C81.9576 29.8083 82.018 29.7479 82.1287 29.7479C81.9576 29.4662 81.7865 29.2448 81.6758 28.963C81.5047 28.6208 81.5047 28.2887 81.3337 28.0069C81.2733 28.0069 81.223 28.0673 81.223 28.0673V28.0573ZM81.223 24.4545C80.9412 25.3602 81.0016 26.1955 81.1123 27.0408C81.1123 27.1012 81.1726 27.1012 81.223 27.1515C81.2833 26.5276 81.3337 25.964 81.394 25.4105C81.4544 25.0181 81.5047 24.6256 81.3337 24.2834C81.2733 24.3438 81.223 24.3941 81.223 24.4545ZM88.3178 19.9561C88.2071 20.1272 88.036 20.3486 87.9253 20.58C87.7039 20.9725 87.7542 21.2543 88.036 21.4254C88.2071 21.5361 88.4285 21.6468 88.5392 21.8179C88.8813 22.2103 89.3241 22.16 89.777 22.0996C90.1695 21.9889 90.4512 21.5965 90.6726 21.1939C91.0651 20.2379 91.2966 20.0668 91.6287 19.1108C92.5344 16.9672 90.723 17.4805 89.8877 18.1547C89.2637 18.6076 88.821 19.3322 88.3077 19.9561H88.3178Z" fill="#3B3B42"/>
</g>
<defs>
<clipPath id="clip0_1_92">
<rect width="101.07" height="37.76" fill="white" transform="scale(1.00636)"/>
</clipPath>
</defs>
</svg>

