<svg width="44" height="45" viewBox="0 0 44 45" fill="none" xmlns="http://www.w3.org/2000/svg">
<path d="M37.7265 44.9999C36.0508 44.9999 34.4754 44.3325 33.2905 43.1207L28.1793 37.8932C26.4379 36.1123 25.2625 33.8656 24.7797 31.3959L23.8064 26.4157C23.6938 25.8394 23.8702 25.2437 24.2766 24.8282C24.6829 24.4126 25.2657 24.2324 25.8288 24.3474L30.6984 25.3429C33.1132 25.8365 35.31 27.0387 37.0514 28.8197L42.1627 34.0471C43.3475 35.2588 44 36.87 44 38.5837C44 40.2975 43.3475 41.9087 42.1624 43.1205C40.9775 44.3325 39.4021 44.9999 37.7265 44.9999ZM27.6824 28.3115L28.1505 30.7068C28.4997 32.4935 29.3501 34.1189 30.6099 35.4072L35.7212 40.6347C36.2568 41.1825 36.969 41.4842 37.7265 41.4842C38.484 41.4842 39.1962 41.1825 39.7318 40.6347C40.2674 40.0869 40.5624 39.3585 40.5624 38.5838C40.5624 37.8091 40.2674 37.0807 39.7318 36.533L34.6205 31.3055C33.3607 30.0172 31.7715 29.1474 30.0245 28.7902L27.6824 28.3115ZM26.768 42.9991C27.4438 42.3173 27.451 41.2044 26.7843 40.5133C26.1176 39.8223 25.0292 39.8146 24.3538 40.4967C23.7227 41.1336 22.8867 41.4843 22 41.4843C20.1519 41.4843 18.6485 39.9467 18.6485 38.0566V17.4902C18.6485 13.6617 15.603 10.5469 11.8595 10.5469H6.87497C4.97957 10.5469 3.43749 8.96979 3.43749 7.03131C3.43749 5.09283 4.97957 3.51561 6.87497 3.51561H37.1249C39.0203 3.51561 40.5624 5.09274 40.5624 7.03122C40.5624 8.9697 39.0203 10.5468 37.1249 10.5468H32.1406C28.3971 10.5468 25.3516 13.6616 25.3516 17.4901V19.4237C25.3516 20.3946 26.1211 21.1816 27.0703 21.1816C28.0196 21.1816 28.7891 20.3946 28.7891 19.4237V17.4901C28.7891 15.6 30.2926 14.0624 32.1407 14.0624H37.125C40.9159 14.0624 44 10.9083 44 7.03122C44 3.15418 40.9158 0 37.1249 0H6.87497C3.08409 0 0 3.15418 0 7.03122C0 10.9083 3.08409 14.0624 6.87497 14.0624H11.8593C13.7074 14.0624 15.2109 15.6 15.2109 17.4901V38.0565C15.2109 41.8851 18.2564 44.9998 21.9999 44.9998C23.7962 44.9999 25.4895 44.2893 26.768 42.9991Z" fill="white"/>
</svg>
