<svg width="86" height="20" viewBox="0 0 86 20" fill="none" xmlns="http://www.w3.org/2000/svg">
<path d="M30.6523 0.0100963V0.232214C29.5518 0.232214 27.8657 1.0904 25.8565 5.93661L21.0406 19.405H20.0512C17.4867 13.428 15.841 9.57126 14.7406 7.06739L10.3386 19.405H9.34914C2.39282 3.18032 2.03945 2.46349 2.03945 2.46349C1.10049 0.262503 0.716835 0.282695 0 0.232214V0.0100963H8.59192V0.232214C6.82508 0.232214 8.23855 3.42263 8.23855 3.42263L12.3982 12.8727L14.5992 6.73421C12.9232 2.82696 12.7516 2.46349 12.7516 2.46349C11.8126 0.262503 11.429 0.282695 10.7121 0.232214V0.0100963H19.3041V0.232214C17.5372 0.232214 18.9507 3.42263 18.9507 3.42263L23.0801 12.8929L25.5637 5.92651C26.2503 3.96783 25.6445 0.222118 22.8378 0.222118V0H30.6624L30.6523 0.0100963Z" fill="#3B3B42"/>
<path d="M39.0423 0.0101061H39.1836C46.15 15.9824 46.6145 16.8911 46.6145 16.8911C47.6039 19.0921 48.5429 19.1223 49.0881 19.1728V19.3949H39.4461V19.1728C41.6471 19.1728 40.0014 15.9521 40.0014 15.9521L39.123 14.054H33.7215C33.1663 15.316 33.6711 19.1728 36.9725 19.1728V19.3949H29.0369V19.1728C29.8648 19.1122 31.3489 18.9002 33.4691 14.054L39.0423 0.0101061ZM36.2557 7.6126L33.8023 13.8117H39.012L36.2557 7.6126Z" fill="#3B3B42"/>
<path d="M68.5133 0.0100963V0.232214C67.3321 0.232214 65.5652 1.0904 63.4147 5.93661L57.993 19.405H57.1954C49.815 3.18032 49.4314 2.46349 49.4314 2.46349C48.4419 0.262503 48.028 0.292792 47.2607 0.232214V0.0100963H56.4281V0.232214C54.53 0.232214 56.0444 3.42263 56.0444 3.42263L60.3152 12.9232L63.1522 5.92651C63.9801 3.88706 63.4854 0.222118 60.1738 0.222118V0H68.5133V0.0100963Z" fill="#3B3B42"/>
<path d="M86 14.0035V19.405H69.9167V19.1526C71.0777 19.1526 71.5119 17.4968 71.5119 15.629V3.80629C71.5119 2.10002 71.1282 0.222118 69.9167 0.222118V0H85.6466V5.65391H85.3942C85.3942 0.282696 77.8725 0.252407 77.8725 0.252407H76.8831V9.4804H79.1144C79.1144 9.4804 82.0625 9.56117 82.3654 6.2294H82.6178V12.9737H82.3654C82.0625 9.67222 79.1446 9.72271 79.1144 9.72271H76.8831V19.1425H77.8725C77.8725 19.1425 85.7476 19.4454 85.7476 13.9934H86V14.0035Z" fill="#3B3B42"/>
</svg>
