<svg width="16" height="15" viewBox="0 0 16 15" fill="none" xmlns="http://www.w3.org/2000/svg">
<path d="M3.55911 14.9996V4.87878H0.198108V14.9996H3.55946H3.55911ZM1.87931 3.4972C3.05112 3.4972 3.78064 2.72005 3.78064 1.74882C3.75871 0.755466 3.05112 0 1.9016 0C0.751286 0 0 0.755466 0 1.74873C0 2.71996 0.729264 3.49711 1.85729 3.49711H1.87905L1.87931 3.4972ZM5.41947 14.9996H8.78021V9.34827C8.78021 9.04618 8.80214 8.74331 8.89093 8.52755C9.13378 7.92295 9.68679 7.2971 10.6155 7.2971C11.8313 7.2971 12.318 8.22512 12.318 9.5858V14.9996H15.6786V9.19661C15.6786 6.08807 14.0208 4.64151 11.8096 4.64151C9.99667 4.64151 9.20046 5.65568 8.7581 6.34642H8.78047V4.87913H5.41964C5.46351 5.82858 5.41938 14.9999 5.41938 14.9999L5.41947 14.9996Z" fill="white"/>
</svg>

