<svg width="44" height="45" viewBox="0 0 44 45" fill="none" xmlns="http://www.w3.org/2000/svg">
<path d="M21.9999 28.3961C20.0044 28.3962 18.0096 27.8861 16.1905 26.8662L3.07368 19.5106C1.17162 18.4441 -0.00591999 16.3816 0.000261119 14.128C0.00652465 11.8745 1.19552 9.8192 3.10343 8.76408L16.2533 1.49235C19.8517 -0.49745 24.1481 -0.49745 27.7465 1.49235L40.8964 8.76408C42.8043 9.81912 43.9933 11.8744 43.9996 14.128C44.0057 16.3816 42.8282 18.4441 40.9262 19.5106L27.8093 26.8662C25.9908 27.8861 23.995 28.3959 21.9999 28.3961ZM21.9999 3.59408C20.5782 3.59408 19.1565 3.95242 17.8605 4.66911L4.71085 11.9409C3.91637 12.3803 3.44042 13.2019 3.43787 14.1385C3.43531 15.0752 3.90656 15.8997 4.69865 16.3438L17.8155 23.6993C20.4359 25.1687 23.5644 25.1687 26.1847 23.6993L39.3017 16.3438C40.0938 15.8997 40.565 15.0753 40.5625 14.1385C40.5599 13.2018 40.084 12.3803 39.2895 11.9409L26.1393 4.66911C24.8433 3.9525 23.4217 3.59408 21.9999 3.59408ZM17.057 3.08073H17.0578H17.057ZM27.8093 43.1277L43.0933 34.5572C43.9298 34.0882 44.2443 32.9989 43.7956 32.1245C43.3469 31.2499 42.3051 30.9212 41.4686 31.3903L26.1845 39.9607C23.5644 41.4301 20.4358 41.4301 17.8088 39.957L2.52479 31.4765C1.68614 31.0112 0.645817 31.3447 0.200941 32.2212C-0.244099 33.0978 0.0748466 34.1854 0.913335 34.6507L16.1906 43.1276C18.0096 44.1476 20.0045 44.6575 22 44.6575C23.995 44.6576 25.9908 44.1475 27.8093 43.1277ZM27.8093 35.0419L43.0933 26.4714C43.9298 26.0024 44.2443 24.9131 43.7956 24.0387C43.3469 23.1641 42.3051 22.8355 41.4686 23.3045L26.1845 31.8749C23.5644 33.3444 20.4358 33.3442 17.8088 31.8712L2.52479 23.3907C1.68614 22.9254 0.645817 23.2589 0.200941 24.1355C-0.244099 25.0121 0.0748466 26.0997 0.913335 26.5649L16.1906 35.0418C18.0096 36.0619 20.0045 36.5717 22 36.5717C23.995 36.5717 25.9908 36.0618 27.8093 35.0419Z" fill="white"/>
</svg>
