<svg width="96" height="26" viewBox="0 0 96 26" fill="none" xmlns="http://www.w3.org/2000/svg">
<path d="M1.33808 17.4252V4.65804C1.33808 2.61571 1.46887 1.71023 0 1.71023V1.40841H9.58793V1.71023C8.14923 1.71023 8.2096 2.24346 8.2096 4.65804V17.6566C8.2096 21.6105 10.2922 23.2906 13.4714 23.2906C17.053 23.2906 18.864 20.8056 18.864 17.6566V8.94394C18.864 6.19734 17.9887 1.71023 14.8095 1.71023V1.40841H23.5925L23.6227 1.71023C19.87 1.71023 19.1658 6.19734 19.1658 8.94394V17.6566C19.1658 22.0833 16.218 25.2927 10.3224 25.2927C5.76483 25.2927 1.33808 22.8781 1.33808 17.4151V17.4252Z" fill="#3B3B42"/>
<path d="M38.6637 14.407C37.5268 15.7149 35.5851 15.8456 34.2369 14.739C33.6031 14.1353 33.1604 13.4311 33.1604 12.6564C33.1604 12.2238 32.0839 12.4552 30.7157 14.5377V21.208C30.7157 23.0492 30.8867 24.3872 32.094 24.7293V25.001H23.7134V24.7293C24.9911 24.3571 25.0213 22.9184 25.0213 21.208V13.0387C25.0213 11.8616 24.6188 11.3988 23.2405 10.8957V10.6241L30.7157 9.21559V13.9039C33.09 10.3223 34.0961 9.91984 35.1022 9.44699C36.0378 9.01437 37.4463 9.21559 38.3216 9.98021C39.6295 11.1171 39.8006 13.1292 38.6536 14.407H38.6637Z" fill="#3B3B42"/>
<path d="M59.2379 16.9927C59.2379 23.6227 54.8112 25.3029 50.5253 25.3029C47.8793 25.3029 46.2998 24.669 45.3943 23.8239C44.3178 24.5282 40.7361 25.3632 40.7361 24.83V3.8231C40.7361 2.68623 40.4041 2.18319 39.0258 1.68015V1.40851L46.4004 0V11.7611C47.3763 10.0809 49.0464 9.21568 52.1652 9.21568C56.7932 9.21568 59.2379 12.8376 59.2379 16.9927ZM52.5073 17.4655C52.5073 13.5418 51.5716 10.2318 49.157 10.2318C46.9135 10.2318 46.4104 12.9784 46.4104 15.564V19.1155C46.4104 22.9386 47.1851 25.0111 49.1872 25.0111C51.0686 25.0111 52.5073 22.838 52.5073 17.4756V17.4655Z" fill="#3B3B42"/>
<path d="M77.8002 22.8581C77.3273 24.337 75.5868 25.3029 73.474 25.3029C73.474 25.3029 69.7515 25.3029 69.4497 22.2846C69.0171 24.0252 67.3068 25.3029 64.9223 25.3029C63.6446 25.3029 60.7371 24.7294 60.7371 21.8822C60.7371 18.532 63.4535 17.8981 69.4195 16.4896V14.3467C69.4195 10.8657 67.4476 8.98429 65.1336 10.1916C65.1336 10.1916 64.3992 10.6242 65.5361 11.0266C66.1095 11.2278 66.4717 11.7007 66.7433 12.3044C67.2464 13.5418 66.6729 14.8799 65.4354 15.4232C64.2282 15.8961 62.8599 15.3226 62.3568 14.1153C62.0248 13.24 62.1858 12.2339 62.7593 11.6403C63.1617 11.2077 63.7654 10.6041 65.0028 9.93001C66.512 9.12515 68.1519 9.22575 68.1519 9.22575C72.5384 9.22575 74.9831 11.9723 74.9831 15.9262V20.9164C74.9831 20.9164 74.9831 23.331 76.5929 23.2605C76.5929 23.2605 77.4279 23.2605 77.5989 22.6871L77.8002 22.8581ZM69.4195 16.8216C66.6729 17.4253 66.7031 19.4676 66.7031 21.0472C66.7031 21.0472 66.6729 23.2605 68.011 23.2605C68.5845 23.2605 69.0473 22.7877 69.4195 21.9828V16.8216Z" fill="#3B3B42"/>
<path d="M96 24.7293V25.001H87.6194V24.7293C88.8971 24.3571 88.9575 22.8882 88.9575 21.1779V14.4472C88.9575 12.5356 88.2532 11.6302 86.6435 11.6302C85.909 11.6302 85.1344 12.2338 84.6716 12.9381V21.2181C84.6716 23.0592 84.8426 24.3973 86.0499 24.7394V25.011H77.6693V24.7394C78.947 24.3671 78.9772 22.9586 78.9772 21.2181V13.0387C78.9772 11.8616 78.6049 11.3988 77.2366 10.8957V10.6241L84.6716 9.21559V12.4652C85.5469 10.6945 87.3176 9.21559 89.1285 9.21559C91.8047 9.21559 94.6217 10.2921 94.6217 14.3063V21.1779C94.6217 23.019 94.8229 24.4275 96 24.7293Z" fill="#3B3B42"/>
</svg>
