<svg width="19" height="16" viewBox="0 0 19 16" fill="none" xmlns="http://www.w3.org/2000/svg">
<path d="M18.9155 1.88314C18.3009 2.14788 17.6548 2.33223 16.9931 2.43163C17.3024 2.37855 17.7576 1.82121 17.9388 1.59562C18.2141 1.25534 18.4239 0.866886 18.5575 0.449985C18.5575 0.419021 18.5885 0.374788 18.5575 0.352672C18.5419 0.344154 18.5245 0.339691 18.5067 0.339691C18.4889 0.339691 18.4715 0.344154 18.4559 0.352672C17.7374 0.74211 16.9727 1.03934 16.1799 1.23733C16.1523 1.24578 16.1228 1.24654 16.0948 1.23953C16.0668 1.23251 16.0412 1.21799 16.0208 1.19752C15.9591 1.12398 15.8927 1.05453 15.8219 0.989629C15.4986 0.699658 15.1317 0.462329 14.7347 0.286322C14.1989 0.0662962 13.6201 -0.0289921 13.0421 0.00765321C12.4813 0.0431051 11.9337 0.19367 11.4335 0.449985C10.9409 0.720215 10.5079 1.08733 10.1607 1.52927C9.79542 1.98415 9.53171 2.51203 9.38729 3.07743C9.26821 3.61524 9.2547 4.17109 9.34752 4.71406C9.34752 4.80695 9.34752 4.82022 9.26797 4.80695C6.11695 4.3425 3.53161 3.2234 1.41914 0.821543C1.32633 0.715384 1.27772 0.715384 1.20259 0.821543C0.28336 2.21931 0.729718 4.43097 1.87876 5.52353C2.03344 5.6695 2.19253 5.81104 2.36047 5.94374C1.83364 5.90631 1.31968 5.76341 0.849041 5.52353C0.760653 5.46602 0.71204 5.49699 0.707621 5.60315C0.695093 5.75032 0.695093 5.8983 0.707621 6.04548C0.799834 6.75082 1.07756 7.41899 1.51239 7.98167C1.94722 8.54434 2.52357 8.98134 3.18248 9.24796C3.3431 9.31682 3.51047 9.36871 3.68187 9.40277C3.19415 9.49888 2.69394 9.51382 2.20137 9.44701C2.09531 9.42489 2.05553 9.48239 2.09531 9.58413C2.74496 11.3535 4.15474 11.8931 5.18888 12.1939C5.3303 12.216 5.47172 12.216 5.63082 12.2514C5.63082 12.2514 5.63082 12.2514 5.6043 12.2779C5.29936 12.8353 4.06635 13.2112 3.50067 13.4059C2.46816 13.7771 1.36731 13.919 0.274521 13.8217C0.102165 13.7951 0.0623902 13.7995 0.0181963 13.8217C-0.0259975 13.8438 0.0181963 13.8924 0.0668096 13.9367C0.287779 14.0826 0.508748 14.2109 0.738556 14.3348C1.4227 14.7083 2.14597 15.0049 2.89522 15.2194C6.77544 16.2899 11.1418 15.5025 14.0542 12.6053C16.3434 10.3317 17.1477 7.19554 17.1477 4.05499C17.1477 3.93556 17.2936 3.86478 17.3775 3.80286C17.9567 3.35119 18.4673 2.81778 18.8934 2.21931C18.9672 2.1301 19.005 2.01651 18.9995 1.90083C18.9995 1.83448 18.9995 1.84775 18.9155 1.88314Z" fill="white"/>
</svg>
